<svg id="Layer_1" data-name="Layer 1" xmlns="http://www.w3.org/2000/svg" viewBox="0 0 567.47 612"><defs><style>.cls-1{fill:#181617;}</style></defs><path class="cls-1" d="M116.82,178c-4-4.44-13.5-1.61-14-10.61l-.15-.27c7.58,9.39,18.61,10.4,29.36,11.84,2.39.32,5.41-.26,6.34-3.28.77-2.51-.73-4.17-3.08-4.91-.5-.16-1.23.39-1.85.62,3.6-6.37,2.28-13-4.44-14.06-6.43-1-12.46-3.4-17.67-4.17,4-2.59,12.63.31,13.85-9.65.19-1.52,7.39-3.65,10.79-2.91s6.85,2.53,8.41-1,.54-7.78-1.72-11.47c-3.94-6.46-11.4-7.82-17.25-10.21-4.61-1.88-9.11-4.84-14.22-5.77.64-2.43,3.75-5.1-.22-7.17-2-1.05-3.47.75-3.87,2.41-.74,3.09-.28,5.73,4.06,4.79-4,.5-7.51,5.44-12.09,1.48-1.19,4.69-15.28-2-8.64,10,2.07,3.79-.71,6-5.3,5-3.52-.78-7.18-1-11.4-1.47,3.19-5.73,1.07-9.5-4-13.55-5.51-4.4-12.38-7-16.47-13.6C49.38,93.77,41.52,95.87,34,94.88c3.93,2.18,6.67,2.14,7.83-1.3,2-5.94,1.57-11.41-6.14-13.55,4.61.9,8.43,1.14,11.05-3.11l-.15-.3c-2.77.26-4.29,2-2.85,4.31,1,1.66,3.42,2.65,5.38,3.56,11,5.08,23.85,6.47,32.78,16,.37.39,1.81-.28,2.76-.36,9.66-.81,7.84-9.74,9.82-15.22,1.65-4.61-3.77-6.07-7.77-7.39-2.94-1-5.71-3.38-8.19-4.4C70.7,69.84,62.82,61.23,53.32,70l.24,0c-3-4.44-6.56-8.5-7.25-14.18-.34-2.81-.82-5.34-5.41-4.54-4,.7-8.25-1.29-11.7-4l-.24.24c1.62.44,3.53,2.07,4.65-.41.87-1.94-.12-3.66-2.13-4.33C26.63,41.08,23,37,17.74,35.89c7.1-1.1,13.54-.51,19.36,4.36,5.15,4.33,11.92,6.32,18.14,7.06C70.6,49.12,82.45,58,95,65.28c14.89,8.64,30.23,17,43.43,27.86,6.33,5.21,16.64,4.78,19.86,14.78,1.14,3.54,7.73,3.31,11.18,1.94,4.33-1.72.64-5.67.18-8.58-3.27-20.66,4.46-35.46,23.38-45.2,2.67-1.37,4.9-2.26,6.43.43,2.21,3.9-2.25,4.1-3.94,5-20.72,11.51-26.78,24.25-20.36,45.87,1,3.38-1.22,8.42.58,10.67,2.71,3.38,7.51,6.44,11.68,6.83,3.29.31.78-5,1.74-7.49,4.17-10.93,2.56-24.66,15.65-31.38,3.82-2,3.27-7,2.39-10.19C205,68,211.72,61.6,210.09,54a2.1,2.1,0,0,1,.86-1.83c.9-.26,2,.17,2.93,0,11.91-2.08,24-7.82,35.4,1.35,6.05,4.88,13.3,2.26,19.9,3.63,2.61.54,4.83-1.6,4.59-4.91-.37-5-4.66-3.49-7.46-4.65-2.23-.92-7,3.2-6.52-2.4.28-3.25,4.45-2.24,6.57-1.68,21,5.59,43.55,6.86,61.68,20.95,2.21,1.72,5.52,2.34,6,6.68-5.13,0-8.81-3-12.83-5-1.94-.93-3.65-3-5.82-.82-1.81,1.79-1.62,3.95-.39,6.07,2.57,4.46,2.72,6.88-3.08,10-3.58,1.9-8.81,7.55-6.11,13.82,1.21,2.83-.12,2.51-1.65,3.45-3.85,2.36-6.17,5.92-3.07,10,2.95,3.88,4.25,11.74,11.94,7.84,3.8-1.93,17.86,5.72,9.58-9.27-.75-1.36,2.95-2.14,4.3-1.07,5.29,4.19,10.94,8.56,3.5,15.68l-4.41,2c-2,.73-4.78.51-4.85,3.85,2.46.56,4.91,1.28,6.76-1.32l4.81-1.66c5.05-3,10.19-5.9,15.13-9.09,5.3-3.41,8.44-8,5.55-16.09,7.27,7.83,21,5.28,26.56-3.67C386.8,85,396.55,79.05,409.1,77.22c1.72-.25,4.17-.54,4.93-1.7,10.51-16,29.52-19.22,43.86-29.42.86-.62,2.49-1.77,2.5-1.75,6.42,8.78,8.62-.62,12.37-2.87,16.21-9.71,33.89-14.48,52.52-17,8.39-1.15,14.94,3.63,21.57,5.84,6.41,2.12.8,8.75-4.11,11.81l-.16.11c-1.43-6.32-3.65-11.61-10.65-4.91a4.77,4.77,0,0,1-4.87,1c-8.19-2.7-11.19,1.75-13.15,8.51-1,3.52-4.78,3.61-7.94,5.48.74-4.12,5.66-8.88-1.45-10.68-5.08-1.28-10.27-1.65-11.29,6-.9,6.77-12.51,2.06-12.18,10.7-9.2-4.28-13.49,7.81-22.73,6.28-13.71-2.27-6.31,11-8.69,16.33-2.17,4.83,6.59,1.69,10.27,1.94,5,.34,9.51-2.92,15-2.27,6.39.77,1.34-7.16,6.59-9.24-.61,6.79,2.21,10.86,8.66,12.37,2.1.49,7.25-1.21,5.26,4.24-1.14,3.1-3.84,4-7.31,3.06S480.7,85.39,478,88.35c-5.68,6.27-15.53,7.08-19.31,15.07-3.1,6.54-11,6.61-14.59,12.32,1.65-3.89,3.44-7.54-.74-10.92-3.28-2.66-6.58-2.72-10.31-.88-1.88.93-4.15,1.1-6.24,1.61,3.87-2.8-3.28-7.14,1.7-10.28,3.47-2.19,8.23-5.35,3-10.45s-8,.86-11.76,2.67c-9.67,4.59-6.27,11.79-3.13,19.26-3.44-3.13-1.35-9.32-7.35-9.19-5.22.1-9,1.56-5.68,8.11.27.53-1.4-1.18-2.59-1.14-3.13.1-6.62.55-7.4,3.77-3.38,13.93-14.82,16.31-26.17,20.1-9.6,3.21-19.9,5.71-30.29,14.32,17.18,1.91,31.59,2.87,45.54-3.95,2.77-1.36,5.05-2.89,5.3-6.27,0-.17.35-.31.53-.46l-.62.32c6.46,4.73,20.12,6.18,27.82,3,0,0,.44.48.39.65-1.2,4.12,1,6.73,4.66,9.22-5.77,2.35-10.11,5-16.86,2.22-2.15-.88-11.2,1.18-15.14,5.27-4.91,5.09,0,6.23,3.88,7.62-6-1.24-14.63,5.63-16.68-7.51-.93-5.9-8.43-1.83-12.82-2.88-2.25-.53-6.15-1.47-7,1.42-1.83,6.28,5.12.9,6.24,4.43-4,1.71-9.87-2-13,4.37l9.89,3.8c-3.14-.17-8.32,2-13.26-1.11-4.11-2.57-9-3-11.35,1.95s2.3,7,5.82,9c1.86,1.1,3.58,2.44,5.46,3.74-11.28.48-15.35-10.14-22.93-15.16-6.71-4.46-13.48-5.64-16.06,1.35s-8.82,10.51-12.89,16c-8.58,11.63-5.9,19,8.61,21,5.08.7,10.35.18,15.53,0,8.52-.24,12.56,3.1,12.9,12.32.7,19.5,2.39,39,3.79,58.45.44,6.07-8.38,17.78-15.91,19.23-6.67,1.29-9.15,4.91-10.26,11.12-4.27,23.92-21.77,39.56-36.31,57-1.36,1.64-2.74,11.49-2.62,18.59,0,1.39-3.22-18.28-4.3-20.39-10.19-19.94-24.13-37.89-31.45-59.36-4.83-14.17-5.37-29-6.47-43.69-.7-9.38.34-18.81,1.51-28.3,1-8.32-8.3-7-14.41-7-.9,14.6,2.2,28.2,5.32,41.88,1.19,5.21.14,10.62-2.71,15.82-5.56,10.18-2.07,17.33,8.38,18.59,1.45.17,3.25-.25,3,1.79a5.15,5.15,0,0,1-2.21,3.56c-6.51,3.52-15.59-.74-16.47-7.89-2.7-22-3-44.07-2.89-66.16,0-2.77.5-4.88-.92-7.82-1.77-3.67-3.35-9,0-12.61,3.86-4.18,9.25-3.64,14.5-2.1,7,2.06,14.23,4.74,18.88-4.41,1.68-3.33,2.62-8,0-9.09-6.13-2.57-5-8.55-7.76-12.58-9-13.29-11.51-14-25.1-5.67-2.79,1.72-5.39,3.7-8.91,2.15l.26.32c.22-.81,1.08-1.83-.46-2.17-1.75-.39-2.19.63-2,2.15l.27-.28c-8-1-15.54,2-23.25,3.31-3.34.57-8.2,1.39-7.25,6.44,1.08,5.69,5.9,4.14,9.83,3.63,2.06-.27,4.11-.67,6.57-1.08-9.27,8.68-30.65,5.46-37.88,0-1.71-1.29-4.34-4.15-4.86-3.8-8.24,5.6-13.8-3.71-20.93-3.49,2.16.79,4.34,1.31,5-1.75.35-1.6-.76-2.62-2.32-3C118.05,174,116.86,175.32,116.82,178ZM432.7,81.7c5.35,1.68,9.64-.27,13.07-4.21,1-1.15.13-2.66-1.5-3.23-5.27-1.85-8.86,1.44-12.62,4.17a7.3,7.3,0,0,0-1.28,1.69c-1.49,1-2.87,2.29-.67,3.69S432.62,83.72,432.7,81.7ZM280.33,114.34c-6.56,3.41-1.92,7.14.64,9a6.51,6.51,0,0,0,9.84-2.57c1.89-3.86,3.18-9-2.33-11.2-3.58-1.4-8.47-1.91-8.2,4.78Zm32.91,160.91a30.44,30.44,0,0,0,0,4.94c.58,3.06-3.36,8.09,2.74,8.76,5.2.58,6.25-4,7.35-8.09a15,15,0,0,0,.13-8.67c-2.14-6.92-1.73-14.08-.26-20.93,2.17-10.18,1.81-20.48,2.57-30.73.21-2.8.13-7.73-2.91-7.47-5.1.43-10.35,2.61-14.86,5.22-2.7,1.57-1.75,4.95.35,7.75,5.68,7.58,6.95,16.29,7.18,25.69.26,10.37-3.74,13.73-13,10.3-5.76-2.13-10.93-.13-16.35.42a3.42,3.42,0,0,0-3.45,3.53c-.07,2,.52,4,2.6,4.32C294.69,271.6,302.54,280.4,313.24,275.25ZM224.81,111.57c-3.23-3.55-8.56-6.8-9.61-11.09-3.19-13.1-5.7-9.62-10.69-1-2.83,4.91-9.15,8.78-8,14.77,1.41,7.53,9.78,5,14.94,7.08,2.57,1.06,5,6.9,8.49,1.76C222.1,119.89,223.07,115.82,224.81,111.57Zm-67.58,42.05c8.27,4.1,11.44,11.33,21,9.57,12.93-2.39,26.43-1.42,39.43-4.32,1.7-.38,5,.61,3.87-3.25-.52-1.79-1.17-3.27-3.67-3.12-18.52,1.1-37-2.5-55.54-.62C161.42,152,160.53,152.48,157.23,153.62ZM230.11,64.1c-.94-2.65-.41-5.9-3.57-7.63-3.31-1.82-4.2,1.6-6.26,2.47-9.58,4-4,10.08-3.57,16.34.5,7.65,2.73,6,7.62,4.33C233.15,76.67,225.45,68.23,230.11,64.1Zm-52,82.17c-7.19-3.25-14.28-6.75-21.63-9.6-2.37-.93-6.22-2.71-7.88.84-1.83,3.94,1.74,6.17,4.57,7.67C160.77,149.24,168.89,150.71,178.08,146.27ZM301.54,66.9c-5.13-.8-5.34,3.31-5.67,6-.49,4.16.61,8.53,6,8.44s5.46-5.43,6.38-8.8C309.81,66.81,303.7,68.79,301.54,66.9Zm6.2,66.12c4.15-1.25,2.41-6.93,5.7-8.9-1-1.69-2.28-5.22-3.91-3.79-2.72,2.37-4.51,6.13-5.87,9.62C302.69,132.45,305.74,132,307.74,133Zm-1.06,19.22c8.09,1.09,12.78-.19,17-4.79C317.13,143.78,313.12,147.51,306.68,152.24ZM380,111.33a13.86,13.86,0,0,0-10.3,5.91c-.23.31,1,2.45,1.37,2.4,4.23-.61,6.89-3.52,9.24-6.79C380.41,112.69,380.2,112.31,380,111.33Zm-107.65,13c-1.23-3.1,4.14-4.94,1.63-8.12-.41-.51-2.92-.19-3.71.55C267.33,119.56,270,121.78,272.34,124.37Zm54.35,22.69c6.17-.59,9.37-.47,12.59-4.16C334.89,141,331.73,141.46,326.69,147.06Zm7.48-14.84c3.51,1.48,5.86-.12,8.5-2C338.9,127.12,336.46,128.32,334.17,132.22ZM502.6,36.11c-.94.51-2.48.71-2.34,2.7.11,1.58.53,2.86,2.53,2.64a2.93,2.93,0,0,0,2.86-2.73C505.94,36.65,504.49,36.43,502.6,36.11ZM326.33,155.86l3.17-2.5c-.81-.47-1.67-1.41-2.41-1.31-1.44.18-3.73-.31-3.63,2.19C323.48,154.75,325.1,155.2,326.33,155.86Zm119-86.25c-.82-1.25-1.95-2.1-3.5-1.36-.93.45-2.32,1.38-2.3,2.06.06,1.73,1.53,2.13,3.13,1.84C444.07,71.9,445.4,71.59,445.33,69.61Zm-9.86,24-2.53-2.32c-.63.79-1.62,1.51-1.84,2.4-.42,1.78.84,2.61,2.39,2.25C434.21,95.77,434.69,94.57,435.47,93.61Zm-72.48,23c1.18-1.27-.26-2.14-.81-2.36a3,3,0,0,0-2.57.58c-1.41,1.22.38,1.78.92,2.09S362.4,118.25,363,116.63Z"/><path class="cls-1" d="M77.39,136.61c13.36.46,25.38,4.14,37.42,7.71A111.33,111.33,0,0,1,77.39,136.61Z"/><path class="cls-1" d="M46.78,76.92l6.78-7-.24,0c-3.79.65-3.83,5.08-6.69,6.67Z"/><path class="cls-1" d="M542.74,42.09c-3.24,1.86,1.71,4.91-1.12,7.22-2.15-2.93,4.16-4.43,1-7.11Z"/><path class="cls-1" d="M534.83,57.83c-.41-.47-.89-1.3-1.12-1.23a9.48,9.48,0,0,0-2.1,1.17c.52.34,1,.91,1.57.93S534.25,58.16,534.83,57.83Z"/><path class="cls-1" d="M512.58,58.28l-1.7.34.73,1.42.79-1.47Z"/><path class="cls-1" d="M29.2,47.22l-2.33-.76c.24-.1.61-.36.71-.29.49.39.91.86,1.37,1.3Z"/><path class="cls-1" d="M102.77,167.37l-1.36-1.13-.35,1.63c.53-.25,1-.49,1.57-.75Z"/><path class="cls-1" d="M519.77,55.16l-.33.53L519,55Z"/><path class="cls-1" d="M526.86,54.2l-.45.85.19-1.77C526.68,53.59,526.77,53.9,526.86,54.2Z"/><path class="cls-1" d="M512.4,58.57,512,58.4a3.46,3.46,0,0,0,.53-.09S512.4,58.57,512.4,58.57Z"/><path class="cls-1" d="M197.82,174.27l-1.06,2.53-.84-2.51-.27.28,2.43,0Z"/><path class="cls-1" d="M280.28,114.33c.24.6.48,1.2.73,1.8l1.15-1.23-1.83-.57S280.28,114.33,280.28,114.33Z"/><path class="cls-1" d="M469,278.42c-1.24-5.51-3.17-10.12-9.28-4.28a4.13,4.13,0,0,1-4.24.89c-7.13-2.35-9.75,1.53-11.45,7.42-.89,3.07-4.17,3.15-6.92,4.77.64-3.59,4.93-7.74-1.26-9.3-4.43-1.12-8.95-1.44-9.84,5.26-.78,5.89-10.9,1.8-10.61,9.32-8-3.73-11.76,6.81-19.81,5.47-11.94-2-5.49,9.61-7.57,14.23-1.89,4.21,5.74,1.47,8.95,1.69,4.31.3,8.28-2.55,13.05-2,5.57.66,1.17-6.25,5.74-8.05-.53,5.91,1.93,9.46,7.55,10.77,1.82.43,6.31-1.05,4.58,3.69-1,2.7-3.35,3.44-6.37,2.67s-.14,6.12-2.47,8.7c-4.94,5.47-13.44.31-16.74,7.28-2.7,5.69-14.32,7.82-19.08,5.5-27.5,11.42-30.52-30.76-30.52-33.55s3.63-.47,4.3-1.48c9.16-13.94,25.72-16.75,38.21-25.64.75-.53,2.17-1.54,2.18-1.52,5.59,7.65,7.51-.54,10.78-2.5,14.12-8.46,29.52-12.62,45.75-14.85,7.31-1,13,3.17,18.8,5.09,5.58,1.85.69,7.62-3.59,10.29l-.14.1"/><path class="cls-1" d="M144,347.58c-3.1-5-10-5-12.71-10.73-3.3-7-11.88-7.67-16.82-13.13-2.33-2.58-5.74,1.6-8.76,2.38s-5.38,0-6.37-2.67c-1.73-4.74,2.76-3.27,4.58-3.69,5.62-1.32,8.08-4.87,7.55-10.78,4.57,1.81.18,8.72,5.74,8.05,4.77-.57,8.74,2.27,13,2,3.21-.22,10.84,2.51,8.95-1.69-2.08-4.62,4.37-16.21-7.57-14.23-8,1.33-11.79-9.2-19.81-5.47.29-7.53-9.83-3.43-10.61-9.33-.89-6.69-5.41-6.38-9.83-5.26-6.2,1.57-1.91,5.72-1.27,9.3-2.75-1.62-6-1.7-6.91-4.77-1.71-5.88-4.33-9.77-11.46-7.41a4.14,4.14,0,0,1-4.24-.9c-6.11-5.84-8-1.22-9.28,4.28l-.14-.1c-4.28-2.66-9.17-8.44-3.58-10.29C60.28,271.2,66,267,73.29,268c16.24,2.23,31.63,6.39,45.75,14.84,3.27,2,5.19,10.15,10.78,2.51,0,0,1.43,1,2.18,1.52,12.49,8.88,29.05,11.7,38.22,25.63.66,1,2.79,1.26,4.29,1.48Z"/><path class="cls-1" d="M310.58,492.94c4.66,1.47,8.4-.23,11.38-3.67.87-1,.12-2.32-1.3-2.81-4.59-1.61-7.72,1.26-11,3.63a6.2,6.2,0,0,0-1.12,1.48c-1.3.88-2.51,2-.58,3.21S310.51,494.7,310.58,492.94Z"/><path class="cls-1" d="M321.58,482.41c-.71-1.09-1.7-1.83-3-1.18-.81.38-2,1.2-2,1.78.05,1.52,1.33,1.86,2.73,1.61C320.48,484.4,321.65,484.13,321.58,482.41Z"/><path class="cls-1" d="M445.82,283.26c-2.85-.84-5.9-1-8.83-1.65-3.42-.74-5.07-.35-6.14,3.88-3.43,13.82-13.64,21.72-27.93,23a98.85,98.85,0,0,1-30-1.82c1.67,1.74,2.18,2.71,2.95,3,8.95,3.67,17.57,8,27.41,9.42,5.4.79,8.13,1.14,9.74-5.13,1.5-5.82,8.25-7.74,13.51-5,4.55,2.4,3.67,6.71,2.1,9.8-1.9,3.76-4-.18-5.65-1.26-2.37-1.56-4.46-2.39-6.58.07-7.76,9.05-19,12.48-28.9,18.13-5,2.88-8.56,1.94-9.74-4.34-.22-1.15.09-3.05-1.93-3.42-3.24,3.43-2.31,7.55-1.65,11.41,1.94,11.69,1.05,12.77-11.18,12.35-5.51-.18-19,10.93-19,16.32,0,4.41.39,9.28,6.08,10.7,1.59.4,4.13-.1,3.53,2.44-.41,1.75-2.85,1.24-4.54,1.87-52.64,19.41-85.39,32.86-140.55-2.78a12.83,12.83,0,0,0-10-1.9c-8.13,1.8-8.15,1.69-6.68-7.48a19.78,19.78,0,0,1,2.08.53c2.56,1,5,3.84,7.69,0s-.66-5.38-2.51-7.51c-6.36-7.38-14.57-11-24.14-12.11-6-.7-8.93-3.3-5-9.44,2-3.12,2.31-6.46.89-10.71-3.67,4.19-7.35,3.16-11.33.81-6-3.55-13.88-3.34-18.7-8.87-7.08-8.19-6.85-8.36-17.12-3.65-1.49.68-3.12,1.11-5.14,1.81.21-5.92,3-8.87,8.21-9,5.36-.1,12.11-5.53,15.51,3.07,1.3,3.28,3.47,2.87,5.9,3,9.43.48,17-6,26.19-6.8a30,30,0,0,0-8-2.31,157.84,157.84,0,0,1-37.62-9.62c-4.93-1.94-9-3.94-9.86-9.69-.52-3.65-2.35-3.65-5.28-2.31-7.12,3.28-10.21,9.65-9,20.3.63,5.44.35,10.39-3.16,14.93-2.87,3.69-1.59,7.11.54,11,3.73,6.75,11.34,8.48,16.06,13.49,13.43,14.22,23.41,30.88,32.24,48.33,9.62,19,18.73,38.49,33.32,54.54,2.18,2.41,4.2,5.26,4.24,8.6.19,16.27,4.31,32.28,3.1,48.61-.31,4-1.26,7.88-1.71,11.84-.35,3,1,6,3.94,6.13,2.64.1,3.63-2.74,3.54-5.63-.18-4.48.13-9,0-13.51-.18-6.5-.57-13-.93-20.65,6.73,6.33,9.72,14.89,16.84,18.36,11.51,5.63,20,14.67,29.49,22.67,8.87,7.46,10.34,17.2,9.8,27.72a79.59,79.59,0,0,1-1.94,12.58c-1,4.6.23,7.76,5.22,9.41,1-10.09,2.06-20,3-29.85.19-2.06.33-4.39,2.83-4.56,3.07-.22,3.19,2.38,3.65,4.66a69.45,69.45,0,0,1-.54,32c-.89,3.4-2.39,8.18,2,8.68,3.8.43,3.06-5,3.34-7.86,1-10.7,1.63-21.45,2.23-32.18.21-3.54,1.24-6.35,4.7-7.79,8.5-3.53,17-7.06,25.58-10.5,4.11-1.65,5.47-.08,4.73,4.18-.64,3.66-2.25,7.18-1.72,11.06.27,2.15.68,3.86,3.39,4s3.54-1.32,3.77-3.55c.15-1.5.15-3,.29-4.51,2-22.3,2-22.26,19.59-36.24,12.88-10.29,23.85-21.89,26.14-39.28.21-1.69,1.15-3.3,1.67-4.95.91-2.86,2.45-5.28,5.8-4.53s2.53,3.94,2.53,6.27c.09,26.28-1.26,52.51-3.75,78.67-1,10.68-1.34,21.43-3.76,32-1.11,4.8-.33,9.22,6.25,9.3s4.23-5,4.15-8.06c-.21-8-1.65-16-1.42-24,.88-31.52,4.25-62.87,6.76-94.27.75-9.48,1.67-19,6.77-27.33,14.21-23.22,28.61-46.34,43-69.47,3.06-4.93,6.54-9.67,12-11.94,6-2.49,9.18-7.59,8.45-12.87-1.44-10.31.73-20.32.44-30.46a11.58,11.58,0,0,1,2.58-8.15C453.29,290.54,451.6,285,445.82,283.26ZM311.27,505.35c-1.34.31-2.45-.41-2.08-2l1.61-2.09c.64.6,1.28,1.2,2.19,2C312.31,504.15,311.89,505.2,311.27,505.35Zm33.63-73.11c-2.43,1-4.26,2.1-7.09.95-2.18,1.54-4.31,3.17-6.44,4.79a9.41,9.41,0,0,0,1.31.52l-.23.06a13,13,0,0,0-2.18.24c-.87.66-1.74,1.31-2.62,1.93-1.75,1.25-3.11,2.78-3.09,4.88.08,7.86-4.95,11.12-11.32,14-9.68,4.35-18.45,10.12-29.65,11.57a89.22,89.22,0,0,1-16.44.56V445.78a42.29,42.29,0,0,1,4.6,2c3.83,1.9,7.57.38,10.66,6.57,1.09,2.18,5.46-8.37,8.53-5.71,1.9,1.64,3.15-4.27,5.3-5.74,5.2-3.57,10.51-5.34,13.28.62.7,1.54,3,6.36,3,6.36s1.89-2.25,1.67-3.69c-2.11-13.31,2.81-4.94,8.44-12a10.14,10.14,0,0,1-1.42.11c-.36-.86-.7-1.72-1-2.6a23.74,23.74,0,0,0,6.13-1.17,62.16,62.16,0,0,1,18.81-12.3c.63,4.37.06,8-2.31,10.87C342.74,430.43,343.6,431.35,344.9,432.24Zm29.24,23.27a2.55,2.55,0,0,1-2.51,2.36c-1.73.2-2.09-.91-2.19-2.29-.12-1.74,1.22-1.92,2-2.36C373.13,453.51,374.39,453.7,374.14,455.51Zm9.54-60a1,1,0,0,0-.08.11l-.33.62-.3-.6.71-.14h0Zm2.9-1.11-.21-.31.35.09Zm2.94-.27.08-.74c0,.13.08.26.11.39Zm2.86,1.54c-.22,0-.44-.25-.66-.39a4.08,4.08,0,0,1,.89-.49c.09,0,.3.32.47.51C392.83,395.48,392.61,395.71,392.38,395.7Zm4-7s0,0-.06.05c.74.63.26,1.1-.17,1.61a1.09,1.09,0,0,1-.24,1.39c-.41-.55-.1-1,.24-1.39-.21-.59-.5-1.17.17-1.61h0l.07-.05-.07.05c-.6-2.67-1.54-4.91-4.5-2.08a2,2,0,0,1-2.05.43c-3.46-1.14-4.73.75-5.56,3.6-.43,1.49-2,1.53-3.35,2.31.31-1.74,2.39-3.75-.61-4.51l-.53-.12a1.22,1.22,0,0,0,1-1.11c.13-.87-.48-1-1.29-1.1-.39.22-1,.3-1,1.14a1.43,1.43,0,0,0,.3.92c-1.58-.15-2.94.34-3.27,2.82-.38,2.86-5.29.88-5.15,4.52-3.88-1.8-5.7,3.3-9.6,2.66l-.25,0a29.43,29.43,0,0,1-3.33,3.66,7.6,7.6,0,0,1-.09,3.27c-.92,2,2.78.71,4.34.82,2.09.14,4-1.24,6.33-1,2.7.32.56-3,2.78-3.91-.26,2.87.94,4.59,3.66,5.23.88.21,3.06-.51,2.22,1.79-.48,1.31-1.62,1.67-3.09,1.29s-3.12-2.4-4.24-1.15c-2.4,2.65-6.56,3-8.16,6.37-1.31,2.76-4.66,2.79-6.16,5.2.69-1.64,1.45-3.19-.31-4.61a3.7,3.7,0,0,0-4.36-.38,12,12,0,0,1-2.64.68c1.64-1.18-1.38-3,.72-4.34.37-.23,1.09-.71,1.08-.67-.17.76,1.34-2.46.42-3.49a39.26,39.26,0,0,1-4.47,1.93c-1.06.38-2.12.79-3.18,1.22-.69,1.71.24,3.76,1.12,5.86-1.45-1.32-.57-3.93-3.1-3.88-2.21,0-3.79.66-2.4,3.43.11.22-.6-.5-1.1-.49-1.32.05-2.79.24-3.12,1.6-1.43,5.88-6.26,6.88-11.06,8.49l-1.67.54a35.1,35.1,0,0,0-3.88,6.95c-1.87,4.48-4.8,8.11-10.6,3.2-3.28-2.75-7.16-.35-10.33,1.75-7.67,5.14-15.47,7.2-24.53,3.22a21.42,21.42,0,0,0-4.21-1.34V422c6.23,1.3,12-.08,17.81-4.79s12.47-7.3,20-6.89c8.69.48,15.54-4.93,23.19-7.55,3.4-1.17,6.79-3.23,10.56-4.1,7.49-1.77,14-5.2,18.23-11.92,2.81-4.38,6.73-7.26,12.77-9.6a101.32,101.32,0,0,1-4.63,13.14,9.81,9.81,0,0,1,1.74-1.9c6.85-4.1,14.32-6.12,22.19-7.2,3.54-.48,6.31,1.54,9.11,2.47S398.5,387.39,396.42,388.69Z"/></svg>